HIERARCHY
ROOT hip
{
  OFFSET 5.51535 103.731 -2.80141
  CHANNELS 6 Xposition Yposition Zposition Zrotation Xrotation Yrotation
  JOINT abdomen
  {
    OFFSET 0 -1.186 -1.5018
    CHANNELS 6 Xposition Yposition Zposition Zrotation Xrotation Yrotation
    JOINT abdomen2
    {
      OFFSET 0 9.964 0.2134
      CHANNELS 6 Xposition Yposition Zposition Zrotation Xrotation Yrotation
      JOINT chest
      {
        OFFSET 0 13.134 -3.2573
        CHANNELS 6 Xposition Yposition Zposition Zrotation Xrotation Yrotation
        JOINT neck
        {
          OFFSET 0 20.686 -1.6905
          CHANNELS 6 Xposition Yposition Zposition Zrotation Xrotation Yrotation
          JOINT head
          {
            OFFSET 0 7.23801 -0.1237
            CHANNELS 6 Xposition Yposition Zposition Zrotation Xrotation Yrotation
            End Site
            {
              OFFSET 0 0 0
            }
          }
        }
        JOINT lCollar
        {
          OFFSET 1.7069 20.075 5.0056
          CHANNELS 6 Xposition Yposition Zposition Zrotation Xrotation Yrotation
          JOINT lShldr
          {
            OFFSET 13.6458 -0.0470195 -4.849
            CHANNELS 6 Xposition Yposition Zposition Zrotation Xrotation Yrotation
            JOINT lForeArm
            {
              OFFSET 28.3255 -0.97589 2.2888
              CHANNELS 6 Xposition Yposition Zposition Zrotation Xrotation Yrotation
              JOINT lHand
              {
                OFFSET 22.1583 -0.529998 10.8316
                CHANNELS 6 Xposition Yposition Zposition Zrotation Xrotation Yrotation
                JOINT lThumb1
                {
                  OFFSET 0.786 0.111997 2.5817
                  CHANNELS 6 Xposition Yposition Zposition Zrotation Xrotation Yrotation
                  JOINT lThumb2
                  {
                    OFFSET 0.360097 -0.877999 4.2331
                    CHANNELS 6 Xposition Yposition Zposition Zrotation Xrotation Yrotation
                    JOINT lThumb2_End
                    {
                      OFFSET 1.8127 -1.21601 2.2227
                      CHANNELS 6 Xposition Yposition Zposition Zrotation Xrotation Yrotation
                      End Site
                      {
                        OFFSET 0.0180981 -0.012195 0.0222007
                      }
                    }
                  }
                }
                JOINT lCarpal1
                {
                  OFFSET 0.9571 1.114 1.7695
                  CHANNELS 6 Xposition Yposition Zposition Zrotation Xrotation Yrotation
                  JOINT lIndex1
                  {
                    OFFSET 4.12461 0.486992 4.1451
                    CHANNELS 6 Xposition Yposition Zposition Zrotation Xrotation Yrotation
                    JOINT lIndex2
                    {
                      OFFSET 3.4052 -1.45401 2.7682
                      CHANNELS 6 Xposition Yposition Zposition Zrotation Xrotation Yrotation
                      JOINT lIndex2_End
                      {
                        OFFSET 1.45309 -1.79499 1.2713
                        CHANNELS 6 Xposition Yposition Zposition Zrotation Xrotation Yrotation
                        End Site
                        {
                          OFFSET 0.0144979 -0.0179083 0.0126995
                        }
                      }
                    }
                  }
                  JOINT lMid1
                  {
                    OFFSET 5.6954 0.209987 2.1184
                    CHANNELS 6 Xposition Yposition Zposition Zrotation Xrotation Yrotation
                    JOINT lMid2
                    {
                      OFFSET 3.9766 -1.53999 2.3863
                      CHANNELS 6 Xposition Yposition Zposition Zrotation Xrotation Yrotation
                      JOINT lMid2_End
                      {
                        OFFSET 1.4042 -1.926 1.125
                        CHANNELS 6 Xposition Yposition Zposition Zrotation Xrotation Yrotation
                        End Site
                        {
                          OFFSET 0.013999 -0.0193044 0.011301
                        }
                      }
                    }
                  }
                }
                JOINT lCarpal2
                {
                  OFFSET 2.0956 0.66 -0.3894
                  CHANNELS 6 Xposition Yposition Zposition Zrotation Xrotation Yrotation
                  JOINT lRing1
                  {
                    OFFSET 5.0395 -0.090013 2.4971
                    CHANNELS 6 Xposition Yposition Zposition Zrotation Xrotation Yrotation
                    JOINT lRing2
                    {
                      OFFSET 3.7921 -1.55199 1.4806
                      CHANNELS 6 Xposition Yposition Zposition Zrotation Xrotation Yrotation
                      JOINT lRing2_End
                      {
                        OFFSET 1.4655 -1.808 0.9609
                        CHANNELS 6 Xposition Yposition Zposition Zrotation Xrotation Yrotation
                        End Site
                        {
                          OFFSET 0.0147015 -0.0181014 0.00959957
                        }
                      }
                    }
                  }
                  JOINT lPinky1
                  {
                    OFFSET 4.9141 -1.269 0.3591
                    CHANNELS 6 Xposition Yposition Zposition Zrotation Xrotation Yrotation
                    JOINT lPinky2
                    {
                      OFFSET 3.1477 -1.685 0.8462
                      CHANNELS 6 Xposition Yposition Zposition Zrotation Xrotation Yrotation
                      JOINT lPinky2_End
                      {
                        OFFSET 0.805498 -1.58501 0.795499
                        CHANNELS 6 Xposition Yposition Zposition Zrotation Xrotation Yrotation
                        End Site
                        {
                          OFFSET 0.00809703 -0.0157944 0.00799848
                        }
                      }
                    }
                  }
                }
              }
            }
          }
        }
        JOINT rCollar
        {
          OFFSET -1.7069 20.075 5.0056
          CHANNELS 6 Xposition Yposition Zposition Zrotation Xrotation Yrotation
          JOINT rShldr
          {
            OFFSET -13.6458 -0.0470107 -4.849
            CHANNELS 6 Xposition Yposition Zposition Zrotation Xrotation Yrotation
            JOINT rForeArm
            {
              OFFSET -28.3255 -0.975895 2.2888
              CHANNELS 6 Xposition Yposition Zposition Zrotation Xrotation Yrotation
              JOINT rHand
              {
                OFFSET -22.1583 -0.530007 10.8316
                CHANNELS 6 Xposition Yposition Zposition Zrotation Xrotation Yrotation
                JOINT rThumb1
                {
                  OFFSET -0.785997 0.112005 2.5817
                  CHANNELS 6 Xposition Yposition Zposition Zrotation Xrotation Yrotation
                  JOINT rThumb2
                  {
                    OFFSET -0.360106 -0.877994 4.2331
                    CHANNELS 6 Xposition Yposition Zposition Zrotation Xrotation Yrotation
                    JOINT rThumb2_End
                    {
                      OFFSET -1.8127 -1.216 2.2227
                      CHANNELS 6 Xposition Yposition Zposition Zrotation Xrotation Yrotation
                      End Site
                      {
                        OFFSET -0.0180972 -0.0121973 0.0222005
                      }
                    }
                  }
                }
                JOINT rCarpal1
                {
                  OFFSET -0.9571 1.114 1.7695
                  CHANNELS 6 Xposition Yposition Zposition Zrotation Xrotation Yrotation
                  JOINT rIndex1
                  {
                    OFFSET -4.1246 0.487011 4.1451
                    CHANNELS 6 Xposition Yposition Zposition Zrotation Xrotation Yrotation
                    JOINT rIndex2
                    {
                      OFFSET -3.4052 -1.45401 2.7682
                      CHANNELS 6 Xposition Yposition Zposition Zrotation Xrotation Yrotation
                      JOINT rIndex2_End
                      {
                        OFFSET -1.4531 -1.795 1.2713
                        CHANNELS 6 Xposition Yposition Zposition Zrotation Xrotation Yrotation
                        End Site
                        {
                          OFFSET -0.0145077 -0.0180048 0.0127017
                        }
                      }
                    }
                  }
                  JOINT rMid1
                  {
                    OFFSET -5.6954 0.210002 2.1184
                    CHANNELS 6 Xposition Yposition Zposition Zrotation Xrotation Yrotation
                    JOINT rMid2
                    {
                      OFFSET -3.9766 -1.54 2.3863
                      CHANNELS 6 Xposition Yposition Zposition Zrotation Xrotation Yrotation
                      JOINT rMid2_End
                      {
                        OFFSET -1.4042 -1.926 1.125
                        CHANNELS 6 Xposition Yposition Zposition Zrotation Xrotation Yrotation
                        End Site
                        {
                          OFFSET -0.0139948 -0.0192916 0.0112994
                        }
                      }
                    }
                  }
                }
                JOINT rCarpal2
                {
                  OFFSET -2.0956 0.66 -0.3894
                  CHANNELS 6 Xposition Yposition Zposition Zrotation Xrotation Yrotation
                  JOINT rRing1
                  {
                    OFFSET -5.03951 -0.0899879 2.4971
                    CHANNELS 6 Xposition Yposition Zposition Zrotation Xrotation Yrotation
                    JOINT rRing2
                    {
                      OFFSET -3.7921 -1.55201 1.4806
                      CHANNELS 6 Xposition Yposition Zposition Zrotation Xrotation Yrotation
                      JOINT rRing2_End
                      {
                        OFFSET -1.4655 -1.808 0.960901
                        CHANNELS 6 Xposition Yposition Zposition Zrotation Xrotation Yrotation
                        End Site
                        {
                          OFFSET -0.0146934 -0.0180999 0.00959832
                        }
                      }
                    }
                  }
                  JOINT rPinky1
                  {
                    OFFSET -4.91411 -1.26899 0.359202
                    CHANNELS 6 Xposition Yposition Zposition Zrotation Xrotation Yrotation
                    JOINT rPinky2
                    {
                      OFFSET -3.14769 -1.68501 0.846199
                      CHANNELS 6 Xposition Yposition Zposition Zrotation Xrotation Yrotation
                      JOINT rPinky2_End
                      {
                        OFFSET -0.805498 -1.585 0.7955
                        CHANNELS 6 Xposition Yposition Zposition Zrotation Xrotation Yrotation
                        End Site
                        {
                          OFFSET -0.00810035 -0.0158035 0.00800029
                        }
                      }
                    }
                  }
                }
              }
            }
          }
        }
      }
    }
  }
  JOINT lThigh
  {
    OFFSET 8.367 -8.2066 0.5982
    CHANNELS 6 Xposition Yposition Zposition Zrotation Xrotation Yrotation
    JOINT lShin
    {
      OFFSET 2.1923 -43.463 -0.4932
      CHANNELS 6 Xposition Yposition Zposition Zrotation Xrotation Yrotation
      JOINT lFoot
      {
        OFFSET 0.733301 -45.8593 -2.6451
        CHANNELS 6 Xposition Yposition Zposition Zrotation Xrotation Yrotation
        End Site
        {
          OFFSET 2.6618 -4.2699 12.3931
        }
      }
    }
  }
  JOINT rThigh
  {
    OFFSET -8.367 -8.2066 0.5982
    CHANNELS 6 Xposition Yposition Zposition Zrotation Xrotation Yrotation
    JOINT rShin
    {
      OFFSET -2.1923 -43.463 -0.4931
      CHANNELS 6 Xposition Yposition Zposition Zrotation Xrotation Yrotation
      JOINT rFoot
      {
        OFFSET -0.733299 -45.8593 -2.6451
        CHANNELS 6 Xposition Yposition Zposition Zrotation Xrotation Yrotation
        End Site
        {
          OFFSET -2.6618 -4.2699 12.3931
        }
      }
    }
  }
}
MOTION
Frames:	4
Frame Time:	0.0333333
-41.9669 100.054 -52.8319 -0.635287 6.14509 101.884 -2.99305e-007 -1.18599 -1.5018 -0.000417627 -2.15287 1.02171 1.01721e-006 9.964 0.213402 0.0376415 -4.30542 2.04549 4.41418e-007 13.134 -3.2573 0.0376452 -4.30542 2.04553 2.18813e-006 20.686 -1.6905 -0.570577 13.6137 -8.57513 1.55529e-007 7.23801 -0.123698 -6.33081 -1.10014 -8.80722 1.7069 20.075 5.0056 0.496435 0.856035 8.23864 13.6458 -0.0470138 -4.849 -74.2297 -0.445638 34.0689 28.3255 -0.975899 2.28881 -1.61902 8.31151 -8.63795 22.1583 -0.529999 10.8316 -26.7084 -34.8359 -2.27114 0.786005 0.111992 2.5817 0.000371657 0.000277425 3.64719e-005 0.360097 -0.878001 4.2331 -0.000275039 -0.000196528 5.25725e-006 1.8127 -1.21601 2.2227 -0.000178411 5.13012e-005 1.8448e-005 0.9571 1.114 1.7695 2.38542e-015 0 -0 4.12461 0.486993 4.1451 -9.47675e-005 -0.000106429 0.000196708 3.40521 -1.45401 2.7682 0.000386698 0.000112935 6.11249e-006 1.4531 -1.79499 1.2713 -0.000174817 3.11879e-005 3.21201e-005 5.6954 0.209989 2.1184 2.01424 -1.01025 -0.822482 3.9766 -1.54 2.3863 2.01524 -1.01084 -0.822907 1.4042 -1.926 1.125 2.01531 -1.01095 -0.823213 2.0956 0.66 -0.3894 2.38542e-015 0 -0 5.03951 -0.0900135 2.4971 1.83514 -3.86237 -5.61254 3.7921 -1.55199 1.4806 4.41725 -2.45616 -2.02478 1.4655 -1.808 0.960898 4.4175 -2.45619 -2.02482 4.9141 -1.269 0.359106 10.759 -6.72879 -4.53613 3.1477 -1.685 0.846198 3.85858 -2.28129 -1.746 0.8055 -1.58501 0.795499 2.70807 -1.58472 -1.23797 -1.7069 20.075 5.0056 -43.5806 -1.20684 5.58143 -13.6458 -0.0470131 -4.84901 -9.49438 -41.9537 -7.42244 -28.3255 -0.975874 2.2888 7.44522 -33.1739 10.5065 -22.1583 -0.530001 10.8316 11.1075 -20.0439 -6.43162 -0.785998 0.112004 2.5817 -19.2121 49.9311 17.782 -0.360106 -0.877992 4.2331 -0.518266 0.46143 -1.5909 -1.8127 -1.216 2.2227 -2.77348 2.81314 -9.01342 -0.9571 1.114 1.7695 -6.36111e-015 -3.18055e-015 1.27222e-014 -4.12461 0.48701 4.14511 -23.6185 3.40211 -15.5055 -3.4052 -1.454 2.76819 39.4979 10.0978 -9.27469 -1.4531 -1.795 1.2713 38.8029 9.98599 -9.06153 -5.69541 0.209999 2.1184 -1.04218 5.48645 -10.0637 -3.9766 -1.54 2.3863 52.3089 13.5299 -14.1044 -1.4042 -1.92599 1.12501 44.0035 12.3921 -11.1857 -2.0956 0.66 -0.3894 -6.36111e-015 -3.18055e-015 1.27222e-014 -5.03951 -0.0899875 2.4971 16.4926 0.275065 -5.65911 -3.7921 -1.55201 1.4806 37.334 11.9096 -10.7862 -1.4655 -1.80801 0.960896 38.6322 12.1694 -11.2725 -4.91411 -1.26899 0.359207 24.6638 -0.263253 -2.07538 -3.14769 -1.68501 0.846194 30.529 11.315 -8.19444 -0.805496 -1.585 0.795495 30.4595 11.2958 -8.16999 8.367 -8.20659 0.5982 -24.2768 2.38436 -2.00858 2.19231 -43.4631 -0.493195 0.517315 -1.55535 0.986213 0.733294 -45.8593 -2.64509 10.3195 0.00208147 -6.19445 -8.367 -8.20658 0.598199 -2.01978 -16.0593 45.6685 -2.1922 -43.463 -0.493218 13.3744 41.874 -5.65916 -0.733301 -45.8593 -2.6451 -15.7782 3.29972 -23.1761 
-42.4799 100.001 -52.881 -0.380413 6.39529 101.376 -1.0634e-006 -1.186 -1.5018 -0.0433752 -2.17954 1.13863 -7.91723e-007 9.96399 0.213401 -0.0434094 -4.35952 2.27804 2.30232e-006 13.134 -3.2573 -0.0434127 -4.35952 2.27803 1.37097e-007 20.686 -1.6905 -0.647876 13.9213 -8.33803 -1.36672e-006 7.23801 -0.123702 -6.30379 -0.824647 -8.67398 1.7069 20.075 5.0056 0.514178 0.84227 8.3663 13.6458 -0.0470092 -4.84899 -73.5716 -0.367572 33.8505 28.3255 -0.975912 2.2888 -1.31305 8.26283 -8.16937 22.1583 -0.52999 10.8316 -26.3863 -34.2158 -1.85631 0.786003 0.111995 2.5817 0.0249705 0.0133628 0.0707582 0.360097 -0.878002 4.2331 -0.0264253 -0.00330532 -0.0478642 1.8127 -1.21601 2.2227 0.0120423 0.00202794 0.0247494 0.9571 1.114 1.7695 -1.59028e-015 0 -6.36111e-015 4.1246 0.486992 4.1451 -0.0484302 0.0515111 0.0755259 3.4052 -1.454 2.7682 -0.0232836 0.0106121 0.00970461 1.4531 -1.79499 1.2713 -0.0389746 0.0172463 0.0159033 5.69541 0.209985 2.11841 1.98067 -0.968936 -0.799592 3.9766 -1.53999 2.3863 1.95129 -0.978206 -0.797243 1.4042 -1.926 1.125 1.97839 -0.992129 -0.80842 2.0956 0.66 -0.3894 -1.59028e-015 0 -6.36111e-015 5.03951 -0.0900161 2.4971 1.8009 -3.83186 -5.57324 3.7921 -1.55199 1.4806 4.34041 -2.41173 -1.99089 1.4655 -1.808 0.960896 4.36672 -2.42682 -2.00242 4.9141 -1.269 0.359099 10.6602 -6.67295 -4.51188 3.1477 -1.685 0.846204 3.79958 -2.24525 -1.72022 0.805499 -1.58501 0.7955 2.6679 -1.56065 -1.22004 -1.7069 20.075 5.0056 -43.5916 -1.21141 5.56554 -13.6458 -0.047017 -4.849 -8.25671 -42.3734 -5.54995 -28.3255 -0.975888 2.28879 7.04105 -32.7436 9.12512 -22.1583 -0.529988 10.8316 10.5192 -19.5994 -5.77981 -0.785998 0.112007 2.5817 -19.2121 49.9311 17.782 -0.36011 -0.877989 4.2331 -0.518246 0.461425 -1.59088 -1.8127 -1.216 2.2227 -2.77347 2.81314 -9.0134 -0.9571 1.114 1.7695 3.53113e-031 -6.36111e-015 3.18055e-015 -4.12461 0.487014 4.1451 -23.6185 3.40211 -15.5055 -3.4052 -1.45401 2.7682 39.4979 10.0978 -9.27469 -1.4531 -1.795 1.2713 38.8029 9.98598 -9.0615 -5.6954 0.210003 2.1184 -1.0422 5.48646 -10.0637 -3.9766 -1.54 2.3863 52.3089 13.5299 -14.1044 -1.4042 -1.926 1.125 44.0035 12.3921 -11.1857 -2.0956 0.66 -0.3894 3.53113e-031 -6.36111e-015 3.18055e-015 -5.03951 -0.0899879 2.4971 16.4926 0.275054 -5.65911 -3.7921 -1.552 1.4806 37.334 11.9096 -10.7862 -1.4655 -1.80801 0.960898 38.6322 12.1694 -11.2725 -4.9141 -1.26899 0.359198 24.6637 -0.263268 -2.07537 -3.14769 -1.68501 0.846195 30.529 11.315 -8.19444 -0.805499 -1.585 0.795497 30.4595 11.2958 -8.16998 8.367 -8.20659 0.5982 -24.5946 2.08032 -2.08139 2.19231 -43.4631 -0.493198 0.58272 -1.25678 1.27765 0.733304 -45.8593 -2.6451 10.5638 0.0840661 -6.01987 -8.367 -8.2066 0.598199 -2.38806 -15.7207 45.2011 -2.19208 -43.463 -0.493347 12.6837 41.0199 -5.55365 -0.733304 -45.8593 -2.6451 -15.6573 2.24668 -23.9791 
-42.7242 99.9216 -52.9255 -0.189495 6.65639 101.062 -1.00762e-006 -1.18599 -1.5018 -0.0822659 -2.21627 1.24161 -1.50522e-007 9.96399 0.213401 -0.116543 -4.43379 2.48282 1.41088e-007 13.134 -3.2573 -0.116546 -4.4338 2.4828 6.78296e-007 20.686 -1.6905 -0.675968 14.3593 -8.1039 -5.39287e-008 7.23801 -0.123701 -6.43214 -0.703212 -8.46515 1.7069 20.075 5.0056 0.50529 0.828554 8.43394 13.6458 -0.0470064 -4.849 -72.7802 -0.207857 33.576 28.3255 -0.975895 2.28879 -1.45223 8.61361 -8.08112 22.1583 -0.529995 10.8316 -26.0567 -33.1087 -1.52438 0.786002 0.111999 2.5817 0.0951788 0.0513535 0.273512 0.360095 -0.878 4.2331 -0.101102 -0.012132 -0.184796 1.8127 -1.21602 2.2227 0.0663918 0.00811162 0.12204 0.9571 1.114 1.7695 7.95139e-016 0 -0 4.1246 0.486994 4.1451 -0.187292 0.19963 0.291597 3.4052 -1.45401 2.7682 -0.091162 0.0406701 0.0374775 1.4531 -1.79499 1.2713 -0.150178 0.0664557 0.0614656 5.69541 0.209985 2.11841 1.88425 -0.850458 -0.73386 3.9766 -1.53999 2.3863 1.76781 -0.884828 -0.723488 1.4042 -1.926 1.125 1.87256 -0.938162 -0.765908 2.0956 0.66 -0.3894 7.95139e-016 0 -0 5.03951 -0.0900126 2.4971 1.70298 -3.74419 -5.46005 3.7921 -1.55199 1.4806 4.12019 -2.28471 -1.8934 1.4655 -1.808 0.960898 4.22111 -2.34278 -1.93804 4.9141 -1.26901 0.359099 10.3766 -6.51322 -4.44175 3.1477 -1.68501 0.846205 3.63035 -2.14205 -1.64619 0.805501 -1.58501 0.795498 2.55288 -1.46809 -1.16027 -1.7069 20.075 5.0056 -43.6237 -1.22438 5.51603 -13.6458 -0.047016 -4.84899 -7.37675 -42.9473 -3.83388 -28.3255 -0.975883 2.28881 6.63417 -32.6833 7.58147 -22.1583 -0.529993 10.8316 9.95599 -18.452 -5.32241 -0.786004 0.112005 2.5817 -19.2122 49.9311 17.7821 -0.360102 -0.877994 4.2331 -0.518248 0.46143 -1.59089 -1.8127 -1.216 2.2227 -2.77347 2.81314 -9.01341 -0.9571 1.114 1.7695 -1.76556e-031 3.18055e-015 3.18055e-015 -4.1246 0.487012 4.1451 -23.6185 3.40213 -15.5055 -3.4052 -1.45401 2.7682 39.4979 10.0978 -9.2747 -1.4531 -1.795 1.2713 38.8029 9.98598 -9.06151 -5.69541 0.21 2.11841 -1.0422 5.48647 -10.0637 -3.9766 -1.54 2.3863 52.3089 13.5299 -14.1044 -1.4042 -1.926 1.125 44.0035 12.3921 -11.1857 -2.0956 0.66 -0.3894 -1.76556e-031 3.18055e-015 3.18055e-015 -5.0395 -0.0899874 2.4971 16.4926 0.275063 -5.65912 -3.7921 -1.55201 1.4806 37.334 11.9096 -10.7862 -1.4655 -1.808 0.960901 38.6322 12.1694 -11.2725 -4.91411 -1.26899 0.359203 24.6638 -0.263249 -2.07539 -3.14769 -1.68501 0.846196 30.529 11.315 -8.19444 -0.8055 -1.585 0.795499 30.4595 11.2958 -8.16998 8.367 -8.20662 0.598202 -24.9346 2.00715 -2.42976 2.1923 -43.463 -0.493197 0.617059 -1.02513 1.46926 0.733301 -45.8593 -2.6451 11.115 -0.105889 -5.61115 -8.36701 -8.20661 0.598198 -2.8805 -15.452 44.3699 -2.1923 -43.463 -0.493102 12.1448 40.2979 -5.43102 -0.733298 -45.8593 -2.64509 -15.8545 0.267315 -24.5561 
-42.7785 99.7964 -52.9488 -0.0394914 7.01806 100.968 3.60004e-007 -1.186 -1.5018 -0.142887 -2.23985 1.31861 -1.65244e-006 9.964 0.213401 -0.234378 -4.48239 2.63465 -5.51646e-007 13.134 -3.2573 -0.234383 -4.48239 2.63462 1.5879e-007 20.686 -1.6905 -0.669033 14.7984 -8.00324 4.24083e-007 7.23801 -0.123702 -6.56162 -0.645488 -8.40252 1.7069 20.075 5.0056 0.578206 0.824862 8.31683 13.6458 -0.0470075 -4.849 -72.1178 0.0159521 33.5149 28.3255 -0.9759 2.2888 -1.56744 9.13897 -8.6629 22.1583 -0.529992 10.8316 -26.6718 -32.7469 -1.8022 0.785999 0.111997 2.5817 0.204822 0.111445 0.593888 0.360099 -0.877997 4.2331 -0.219144 -0.0257071 -0.401104 1.8127 -1.21601 2.2227 0.156896 0.0192998 0.288022 0.9571 1.114 1.7695 -1.59028e-015 0 3.18055e-015 4.12461 0.486995 4.1451 -0.407768 0.433715 0.63317 3.4052 -1.45401 2.7682 -0.198445 0.088115 0.0814311 1.4531 -1.795 1.2713 -0.326006 0.144051 0.133608 5.6954 0.209986 2.1184 1.73147 -0.663436 -0.629925 3.9766 -1.53999 2.3863 1.4778 -0.737764 -0.606341 1.4042 -1.926 1.125 1.70528 -0.853111 -0.698528 2.0956 0.66 -0.3894 -1.59028e-015 0 3.18055e-015 5.03951 -0.0900148 2.4971 1.54851 -3.60549 -5.28038 3.7921 -1.552 1.4806 3.77187 -2.08479 -1.73839 1.4655 -1.808 0.960903 3.99086 -2.21023 -1.83589 4.9141 -1.269 0.359103 9.92816 -6.26199 -4.32937 3.1477 -1.685 0.846204 3.36274 -1.97943 -1.5286 0.805495 -1.58501 0.795498 2.37046 -1.3829 -1.08686 -1.7069 20.075 5.0056 -43.6753 -1.2442 5.4303 -13.6458 -0.047009 -4.849 -6.82385 -43.6263 -2.35984 -28.3255 -0.975886 2.2888 6.26126 -32.9514 6.02835 -22.1583 -0.530009 10.8316 9.35155 -16.7713 -5.06369 -0.786002 0.112006 2.5817 -19.2122 49.9311 17.782 -0.360106 -0.877993 4.2331 -0.518241 0.46144 -1.59088 -1.8127 -1.216 2.2227 -2.77347 2.81315 -9.0134 -0.9571 1.114 1.7695 -3.18055e-015 3.18055e-015 3.18055e-015 -4.1246 0.487012 4.1451 -23.6185 3.40215 -15.5055 -3.4052 -1.45401 2.7682 39.4979 10.0978 -9.2747 -1.4531 -1.795 1.2713 38.8029 9.986 -9.06151 -5.6954 0.210002 2.1184 -1.04221 5.48649 -10.0637 -3.9766 -1.54 2.3863 52.3089 13.5299 -14.1045 -1.4042 -1.926 1.125 44.0035 12.3921 -11.1857 -2.0956 0.66 -0.3894 -3.18055e-015 3.18055e-015 3.18055e-015 -5.03951 -0.0899858 2.4971 16.4926 0.275071 -5.65911 -3.7921 -1.55201 1.48059 37.334 11.9096 -10.7862 -1.4655 -1.808 0.960903 38.6322 12.1694 -11.2725 -4.91411 -1.26899 0.359208 24.6638 -0.263245 -2.07538 -3.1477 -1.68501 0.846198 30.529 11.315 -8.19443 -0.805503 -1.58499 0.795505 30.4595 11.2958 -8.16998 8.367 -8.2066 0.598191 -25.3772 2.14561 -3.17461 2.1923 -43.463 -0.493197 0.629924 -0.836278 1.57543 0.733309 -45.8593 -2.6451 11.8074 -0.4891 -4.79951 -8.367 -8.2066 0.59821 -3.80561 -14.9778 42.8695 -2.19264 -43.463 -0.492646 11.567 39.4334 -5.24911 -0.733305 -45.8593 -2.6451 -16.0244 -2.58363 -25.1411 
